<svg
      xmlns="http://www.w3.org/2000/svg"
      width="0"
      height="0"
      fill="none"
      viewBox="0 0 209 56"
    >
      <g clipPath="url(#clip0_25_179)">
        <path
          fill="#000"
          d="M70.915 15.747V2.041h1.359l4.96 10.15 4.96-10.15h1.362v13.706h-1.15V3.741l-4.705 9.622h-.915L72.064 3.74v12.006h-1.15zM88.876 15.747V2.041h8.96v.955h-7.791v5.427h7.047v.939h-7.047v5.447h7.792v.938h-8.961zM102.52 15.747V2.041h1.105L112.118 14V2.04h1.172v13.706h-1.128l-8.474-11.943v11.943h-1.168zM122.485 15.747V2.996h-4.726V2.04h10.621v.955h-4.726v12.751h-1.169zM137.511 15.958c-2.114 0-3.667-.595-4.663-1.787-.991-1.192-1.489-2.93-1.489-5.214 0-2.454.498-4.258 1.489-5.407.992-1.149 2.545-1.723 4.663-1.723 2.117 0 3.667.574 4.662 1.723.992 1.15 1.49 2.953 1.49 5.407 0 2.285-.498 4.022-1.49 5.214-.995 1.192-2.548 1.787-4.662 1.787zm0-.999c1.686 0 2.939-.48 3.757-1.45.815-.965 1.226-2.48 1.226-4.555 0-1.503-.18-2.702-.545-3.597-.36-.895-.911-1.536-1.649-1.927-.738-.39-1.667-.584-2.789-.584s-2.054.193-2.799.584c-.745.39-1.299 1.032-1.66 1.927s-.541 2.094-.541 3.597c0 2.07.411 3.59 1.236 4.556.825.965 2.077 1.45 3.767 1.45M148.556 15.747V2.037h5.724c1.433 0 2.472.368 3.116 1.106.645.738.969 1.73.969 2.979 0 1.049-.251 1.907-.755 2.575-.504.668-1.259 1.099-2.268 1.3.328.156.565.347.712.574.15.227.31.524.481.895l1.83 4.278h-1.193l-1.806-4.128a3.122 3.122 0 00-.471-.788 1.497 1.497 0 00-.702-.438c-.297-.093-.718-.137-1.255-.137h-3.213v5.491h-1.169v.003zm1.169-6.429h4.214c1.009 0 1.804-.25 2.385-.755.581-.504.872-1.316.872-2.438 0-2.087-1.002-3.13-3.003-3.13h-4.472v6.323h.004zM164.457 2.04h-1.169v13.707h1.169V2.041zM169.353 15.747l5.193-13.706h1.49l5.173 13.706h-1.192l-1.51-4h-6.429l-1.513 4h-1.212zm2.979-4.96h5.894l-2.959-7.811-2.935 7.812zM70.971 47.279V24.29h7.274l.244 1.987c.939-.648 2.118-1.22 3.54-1.72 1.423-.501 2.943-.752 4.56-.752 2.975 0 5.14.712 6.499 2.134 1.359 1.423 2.037 3.62 2.037 6.597v14.745h-7.809V33.168c0-1.293-.273-2.214-.825-2.765-.55-.552-1.536-.825-2.959-.825-.841 0-1.696.193-2.571.58-.872.388-1.6.872-2.181 1.457v15.664H70.97zM110.498 47.763c-1.456 0-2.805-.26-4.051-.775-1.246-.518-2.241-1.316-2.982-2.401-.745-1.082-1.116-2.432-1.116-4.048 0-2.361.802-4.212 2.401-5.554 1.6-1.343 4.002-2.014 7.201-2.014h6.403v-.535c0-1.165-.388-1.997-1.163-2.498-.775-.5-2.231-.751-4.365-.751-2.618 0-5.19.404-7.711 1.212v-5.043c1.132-.45 2.514-.825 4.144-1.116a29.445 29.445 0 015.167-.437c3.557 0 6.346.728 8.366 2.184 2.021 1.456 3.033 3.768 3.033 6.934v14.354h-6.84l-.388-1.94c-.841.775-1.917 1.373-3.226 1.793-1.309.421-2.932.632-4.873.632m2.475-4.803c1.229 0 2.295-.21 3.2-.631.905-.421 1.633-.956 2.184-1.6v-3.25h-5.527c-2.295 0-3.444.922-3.444 2.766 0 .841.291 1.503.872 1.987.581.484 1.486.728 2.715.728zM144.641 55.815a47.01 47.01 0 01-3.59-.147 38.76 38.76 0 01-3.587-.437c-1.132-.194-2.101-.421-2.909-.678v-5.337c1.293.42 2.846.745 4.656.972 1.81.223 3.477.34 4.996.34 1.971 0 3.45-.107 4.439-.317.985-.21 1.479-.574 1.479-1.092 0-.454-.193-.762-.581-.922-.387-.164-1.149-.244-2.278-.244h-6.352c-2.071 0-3.677-.37-4.826-1.115-1.149-.745-1.723-1.827-1.723-3.25 0-.972.297-1.89.898-2.765.598-.872 1.48-1.52 2.642-1.94-1.326-.679-2.328-1.537-3.006-2.572-.678-1.036-1.019-2.345-1.019-3.928 0-2.976.962-5.15 2.886-6.523 1.924-1.372 4.743-2.06 8.463-2.06.775 0 1.64.056 2.595.17.952.114 1.657.217 2.111.317h8.827l-.194 4.85h-3.346c.808.808 1.212 2.004 1.212 3.59 0 2.231-.721 4.025-2.157 5.384-1.44 1.36-3.614 2.037-6.523 2.037-.484 0-.962-.023-1.429-.073a52.93 52.93 0 00-1.383-.12c-.842.096-1.56.273-2.158.534-.597.26-.898.631-.898 1.115 0 .388.154.648.461.775.307.13.768.194 1.383.194h5.868c2.361 0 4.194.54 5.504 1.623 1.309 1.082 1.963 2.659 1.963 4.73 0 4.591-4.138 6.886-12.414 6.886m.632-19.982c1.713 0 2.892-.29 3.54-.872.648-.581.968-1.553.968-2.909 0-1.356-.33-2.345-.995-2.96-.661-.614-1.834-.92-3.517-.92-1.583 0-2.725.3-3.42.898-.694.597-1.042 1.593-1.042 2.982 0 1.293.324 2.248.969 2.862.648.615 1.81.922 3.493.922M178.591 47.763c-4.011 0-7.227-.995-9.652-2.982-2.425-1.988-3.637-4.987-3.637-8.998 0-3.654 1.002-6.563 3.006-8.73 2.004-2.165 5.009-3.25 9.02-3.25 3.654 0 6.483.938 8.487 2.812 2.004 1.877 3.006 4.399 3.006 7.565V38.3h-16.295c.354 1.52 1.189 2.578 2.498 3.176 1.309.598 3.096.899 5.36.899 1.263 0 2.545-.114 3.855-.34 1.309-.228 2.401-.519 3.273-.873v5.094c-1.099.517-2.408.898-3.928 1.139-1.52.243-3.186.364-4.996.364m-6.062-13.968h9.505v-1.018c0-1.132-.341-2.027-1.019-2.692-.678-.661-1.827-.995-3.443-.995-1.877 0-3.186.38-3.928 1.139-.744.761-1.115 1.947-1.115 3.563M204.1 47.763c-2.521 0-4.331-.548-5.43-1.65-1.099-1.099-1.65-2.862-1.65-5.287V14.592h7.809v25.46c0 .744.153 1.252.46 1.526.308.273.769.41 1.383.41.872 0 1.65-.113 2.328-.34v5.287c-.745.29-1.48.5-2.208.63-.728.131-1.626.195-2.692.195"
        ></path>
        <path
          fill="#332DE6"
          d="M47.289 15.764v31.525h-7.882L7.882 15.764v7.882l7.882 7.879v.003l7.882 7.879v7.882h-7.882L0 31.528V0h7.882l7.882 7.882 7.882 7.882 7.879 7.879v.003l7.882 7.879v-7.882l-7.882-7.879-7.879-7.882V0h7.879l7.882 7.882 7.882 7.882z"
        ></path>
      </g>
      <defs>
        <clipPath id="clip0_25_179">
          <path fill="#000" d="M0 0H209V55.815H0z"></path>
        </clipPath>
      </defs>
    </svg>