<svg xmlns="http://www.w3.org/2000/svg" width="260" height="91" viewBox="0 0 260 91" fill="none"><g clip-path="url(#clip0_97_49)"><path d="M73.7543 20.2232C73.7543 20.9934 73.7543 21.5461 73.7427 22.0873H75.8635C75.8496 21.5322 75.8496 20.9934 75.8496 20.2232V14.2379C75.8496 13.5349 75.8496 13.0076 75.8635 12.4941H73.7427C73.7543 13.0076 73.7543 13.5349 73.7543 14.2379V20.2232Z" fill="#332DE6"></path><path d="M78.0235 22.0873H80.024C80.0101 21.0072 80.0101 19.7237 80.0101 18.7778C80.0101 17.4387 79.9963 15.5608 79.9824 14.2772H80.1443C80.4958 15.3596 80.9283 16.7241 81.3608 18.0331L82.753 22.0873H84.7396L86.0764 18.0331C86.495 16.738 86.9136 15.3735 87.2512 14.2772H87.4131C87.3993 15.725 87.3877 17.8457 87.3877 18.6968C87.3877 19.7769 87.3877 21.0188 87.3738 22.0873H89.4391C89.4275 21.5322 89.4275 20.9656 89.4275 20.2093V14.1709C89.4275 13.5094 89.4275 12.996 89.4391 12.4941H86.1157L84.846 16.4928C84.4829 17.6954 84.1314 18.9535 83.8331 19.9804C83.5509 18.9535 83.1994 17.7093 82.8339 16.5067L81.5504 12.4941H78.0235C78.0374 13.0076 78.0374 13.521 78.0374 14.2379V20.2093C78.0374 20.9795 78.0374 21.4651 78.0235 22.0873Z" fill="#332DE6"></path><path d="M91.6014 20.2232C91.6014 20.9934 91.6014 21.56 91.5876 22.0873H99.2079V20.3435C98.1256 20.3574 96.0049 20.3574 94.6011 20.3574H93.6413V18.0331H94.682C95.762 18.0331 97.6399 18.0331 98.3962 18.047V16.3726H93.6413V14.224H94.534C95.8707 14.224 98.0192 14.2241 98.9651 14.2379V12.4941H91.5876C91.6014 12.996 91.6014 13.5349 91.6014 14.2379V20.2232Z" fill="#332DE6"></path><path d="M100.843 20.2232C100.843 20.9934 100.843 21.56 100.829 22.0873H102.897C102.883 21.5461 102.883 20.9934 102.883 20.2232V18.9258H105.679L106.611 20.5331C106.907 21.0743 107.205 21.6016 107.476 22.0873H109.786C109.34 21.3842 108.907 20.6557 108.517 19.9526C108.232 19.467 107.975 19.0067 107.719 18.5743C109.097 18.1834 109.569 17.2514 109.569 15.6556V15.6024C109.569 13.2643 108.556 12.4941 106.084 12.4941H100.829C100.843 12.996 100.843 13.5349 100.843 14.2379V20.2232ZM105.788 14.2379C107.016 14.2379 107.476 14.5756 107.476 15.6556V15.6834C107.476 16.7773 107.016 17.1959 105.76 17.1959H102.883V14.2379H105.788Z" fill="#332DE6"></path><path d="M115.284 22.2768C118.716 22.2768 119.514 21.4373 119.514 19.3443C119.514 17.508 118.81 16.7102 115.526 16.3193C113.124 16.0348 112.839 15.8059 112.839 15.0473C112.839 14.3327 113.191 14.0205 114.907 14.0205C116.729 14.0205 117.175 14.2911 117.175 15.0889V15.385L119.187 15.3457V15.1699C119.187 13.144 118.512 12.3068 114.893 12.3068C111.664 12.3068 110.758 13.211 110.758 15.1699C110.758 17.0756 111.433 17.6954 114.636 18.0885C117.134 18.3846 117.471 18.7083 117.471 19.4669C117.471 20.2763 117.148 20.5469 115.256 20.5469C113.124 20.5469 112.716 20.3434 112.716 19.3582V19.0483L110.677 19.1015V19.2773C110.677 21.694 111.556 22.2768 115.284 22.2768Z" fill="#332DE6"></path><path d="M122.254 10.4289L122.268 11.9807L122.323 11.9946C123.119 11.2383 123.443 10.9677 123.822 10.9677C124.107 10.9677 124.308 11.0487 124.916 11.4812C125.538 11.9136 125.795 12.0085 126.241 12.0085C126.699 12.0085 127.065 11.8605 127.929 11.0487L127.916 9.49687L127.862 9.48299C127.065 10.2392 126.741 10.5098 126.348 10.5098C126.065 10.5098 125.876 10.4289 125.268 9.99642C124.632 9.56394 124.375 9.46912 123.931 9.46912C123.484 9.46912 123.105 9.63101 122.254 10.4289ZM123.524 12.4941C122.823 14.5339 120.769 20.2487 120.066 22.0873H122.254L122.848 20.2764H127.268L127.849 22.0873H130.103C129.428 20.2487 127.43 14.5339 126.741 12.4941H123.524ZM123.713 17.67C124.079 16.4928 124.458 15.3041 124.768 14.3327H125.376C125.686 15.2925 126.052 16.4813 126.417 17.6422L126.713 18.5743H123.417L123.713 17.67Z" fill="#332DE6"></path><path d="M135.171 22.2768C138.751 22.2768 139.925 21.1413 139.925 17.508V17.0756C139.925 13.4261 138.751 12.3068 135.171 12.3068C131.604 12.3068 130.416 13.4261 130.416 17.0756V17.508C130.416 21.1413 131.604 22.2768 135.171 22.2768ZM135.171 20.4521C133.05 20.4521 132.509 19.8716 132.509 17.3438V17.2375C132.509 14.7652 133.05 14.1431 135.171 14.1431C137.305 14.1431 137.832 14.7097 137.832 17.2375V17.3438C137.832 19.8716 137.305 20.4521 135.171 20.4521Z" fill="#332DE6"></path><path d="M88.0537 48.9957C89.372 44.6362 92.8156 33.5514 94.0275 29.8904H87.5958L85.5768 37.749C85.0403 39.8212 84.5292 41.9465 84.0712 43.7759H82.8594C82.4015 41.972 81.8649 39.8744 81.3261 37.8299L79.2539 29.8904H72.6071C73.7913 33.5514 77.1817 44.6362 78.4999 48.9957H88.0537Z" fill="#332DE6"></path><path d="M95.5076 44.96C95.5076 46.6552 95.5076 47.8671 95.4798 48.9957H111.761V44.0442C109.608 44.0719 105.115 44.0719 102.154 44.0719H101.535V41.6228H102.423C104.576 41.6228 108.854 41.6228 110.2 41.6505V36.995H101.535V34.8141H101.884C104.844 34.8141 109.553 34.8141 111.438 34.8419V29.8904H95.4798C95.5076 30.8594 95.5076 31.9094 95.5076 33.2554V44.96Z" fill="#332DE6"></path><path d="M114.074 48.9957H119.564C119.537 46.8425 119.537 45.0941 119.537 43.2116C119.537 42.1084 119.483 38.0704 119.456 35.0292C120.21 37.291 120.989 39.7125 122.12 42.8878L124.326 48.9957H133.394C133.369 47.8393 133.369 46.6275 133.369 44.9322V33.1999C133.369 31.8816 133.369 30.8594 133.394 29.8904H127.906C127.932 32.0158 127.932 33.7919 127.932 35.6768C127.932 36.8609 127.987 40.5728 128.013 43.7759C127.287 41.595 126.077 38.0982 124.946 34.9228L123.142 29.8904H114.074C114.102 30.8594 114.102 31.8539 114.102 33.1744V45.0664C114.102 46.7084 114.102 47.8671 114.074 48.9957Z" fill="#332DE6"></path><path d="M136.436 44.9322C136.436 46.6275 136.436 47.8393 136.41 48.9957H146.392C153.873 48.9957 156.242 46.683 156.242 39.8743V39.0117C156.242 32.2054 153.873 29.8904 146.392 29.8904H136.41C136.436 30.8594 136.436 31.8816 136.436 33.1999V44.9322ZM146.392 35.1102C149.352 35.1102 150.025 35.9173 150.025 39.3887V39.4974C150.025 42.9965 149.352 43.7759 146.392 43.7759H142.463V35.1102H146.392Z" fill="#332DE6"></path><path d="M161.866 29.8904C160.546 34.2498 157.102 45.337 155.892 48.9957H162.322L162.969 46.4933H170.018L170.664 48.9957H177.31C176.126 45.337 172.736 34.2498 171.418 29.8904H161.866ZM164.341 41.1394C164.88 39.0672 165.391 36.9418 165.849 35.1102H167.058C167.516 36.9141 168.055 39.0117 168.592 41.0585L168.728 41.595H164.232L164.341 41.1394Z" fill="#332DE6"></path><path d="M187.267 49.3727C194.695 49.3727 196.282 47.3814 196.282 42.9965C196.282 39.0927 194.91 37.4252 188.721 36.78C184.334 36.322 183.851 36.107 183.851 35.4062C183.851 34.7078 184.2 34.384 186.649 34.384C189.286 34.384 189.635 34.7078 189.635 35.5959V36.026L195.664 35.9173C195.664 31.5856 194.776 29.5134 186.594 29.5134C179.436 29.5134 177.687 31.5324 177.687 35.5149C177.687 39.4974 179.033 40.9775 185.222 41.595C189.769 42.0529 190.282 42.4577 190.282 43.2648C190.282 44.1529 189.931 44.4489 187.132 44.4489C184.172 44.4489 183.742 44.2338 183.742 43.1838V42.7259L177.581 42.8346C177.581 48.0822 179.221 49.3727 187.267 49.3727Z" fill="#332DE6"></path><path d="M74.1682 75.9063H79.6586C79.6308 73.7532 79.6309 72.0025 79.6309 70.1199C79.6309 69.0167 79.5777 64.9811 79.5499 61.9399C80.3039 64.1994 81.0833 66.6208 82.2142 69.7961L84.4205 75.9063H93.4886C93.4609 74.7476 93.4608 73.5381 93.4608 71.8429V60.1105C93.4608 58.7899 93.4609 57.7677 93.4886 56.7987H87.9982C88.026 58.9264 88.026 60.7026 88.026 62.5851C88.026 63.7692 88.0792 67.4834 88.1069 70.6842C87.3807 68.5056 86.1689 65.0065 85.0403 61.8312L83.2364 56.7987H74.1682C74.196 57.7677 74.196 58.7645 74.196 60.0827V71.977C74.196 73.619 74.196 74.7754 74.1682 75.9063Z" fill="#332DE6"></path><path d="M100.915 56.7987C99.5965 61.1582 96.1528 72.2453 94.941 75.9063H101.373L102.02 73.4016H109.069L109.715 75.9063H116.361C115.177 72.2453 111.787 61.1582 110.469 56.7987H100.915ZM103.392 68.0477C103.93 65.9755 104.442 63.8502 104.897 62.0208H106.109C106.567 63.8224 107.106 65.9223 107.642 67.9668L107.777 68.5056H103.283L103.392 68.0477Z" fill="#332DE6"></path><path d="M131.942 71.977V71.4659H137.19C142.84 71.4659 145.046 69.581 145.046 64.1462V64.0652C145.046 58.6026 142.84 56.7987 137.19 56.7987H125.887C125.915 57.7423 125.915 58.7368 125.915 60.0296V71.977C125.915 73.619 125.915 74.7754 125.887 75.9063H131.97C131.942 74.7476 131.942 73.5913 131.942 71.977ZM135.844 61.8057C138.131 61.8057 138.913 62.3423 138.913 64.0652V64.1184C138.913 65.8414 138.131 66.4335 135.844 66.4335H131.942V61.8057H135.844Z" fill="#332DE6"></path><path d="M147.28 71.8683C147.28 73.5635 147.28 74.7754 147.255 75.9063H153.335C153.309 74.7476 153.309 73.5381 153.309 71.8429V71.0889H158.099L159.336 73.4016C159.819 74.3175 160.25 75.2056 160.573 75.9063H166.977C166.304 74.7222 165.578 73.4016 164.905 72.0834C164.503 71.304 164.098 70.5778 163.696 69.8771C165.849 68.8549 166.681 66.9446 166.681 63.6883V63.6073C166.681 58.4153 164.207 56.7987 158.825 56.7987H147.255C147.28 57.7677 147.28 58.8177 147.28 60.1637V71.8683ZM157.479 61.8057C159.766 61.8057 160.546 62.3423 160.546 63.8779V63.9311C160.546 65.5986 159.766 66.1374 157.37 66.1374H153.309V61.8057H157.479Z" fill="#332DE6"></path><path d="M174.755 52.7907V55.8851L182.72 55.159V50.3948C180.971 50.9614 176.556 52.2796 174.755 52.7907ZM173.166 56.7987C171.848 61.1581 168.404 72.2452 167.192 75.9063H173.624L174.269 73.4016H181.321L181.966 75.9063H188.613C187.429 72.2452 184.038 61.1581 182.72 56.7987H173.166ZM175.643 68.0477C176.182 65.9755 176.693 63.8501 177.149 62.0208H178.36C178.818 63.8224 179.357 65.9223 179.894 67.9667L180.028 68.5056H175.534L175.643 68.0477Z" fill="#332DE6"></path><path d="M193.24 71.8683C193.24 73.5635 193.24 74.7476 193.215 75.9063H199.295C199.27 74.7222 199.27 73.5381 199.27 71.8429V62.2081H201.638C202.713 62.2081 204.112 62.2081 205.727 62.2359V56.7987H186.783V62.2359C188.936 62.2081 190.604 62.2081 191.682 62.2081H193.24V71.8683Z" fill="#332DE6"></path><path d="M207.369 71.8683C207.369 73.5635 207.369 74.7476 207.341 75.9063H213.692C213.666 74.7222 213.666 73.5381 213.666 71.8429V60.1105C213.666 58.7899 213.666 57.7955 213.692 56.7987H207.341C207.369 57.7955 207.369 58.8177 207.369 60.1637V71.8683Z" fill="#332DE6"></path><path d="M226.178 76.281C233.875 76.281 236.134 74.5603 236.028 67.8049L230.026 67.6985C230.026 70.0112 229.622 70.9803 226.178 70.9803C223.003 70.9803 222.33 70.2009 222.33 66.4057V66.2993C222.33 62.5042 223.003 61.7502 226.178 61.7502C229.702 61.7502 229.973 62.6383 229.973 65.0065L235.972 64.9001C236.081 57.9574 233.875 56.4241 226.178 56.4241C218.509 56.4241 216.113 58.7368 216.113 65.9224V66.7827C216.113 73.9405 218.509 76.281 226.178 76.281Z" fill="#332DE6"></path><path d="M241.597 56.7987C240.279 61.1582 236.835 72.2453 235.623 75.9063H242.055L242.7 73.4016H249.751L250.397 75.9063H257.043C255.859 72.2453 252.469 61.1582 251.151 56.7987H241.597ZM244.074 68.0477C244.61 65.9755 245.121 63.8502 245.579 62.0208H246.791C247.249 63.8224 247.786 65.9223 248.324 67.9668L248.459 68.5056H243.965L244.074 68.0477Z" fill="#332DE6"></path><path fill-rule="evenodd" clip-rule="evenodd" d="M38.9846 23.3137C41.7047 22.7474 44.5231 23.5929 46.4853 25.5552C48.4476 27.5174 49.2931 30.3358 48.7267 33.0559C47.0596 41.083 44.8129 51.9179 42.7071 62.0642C41.9546 65.6935 38.873 68.371 35.1771 68.6103C31.4813 68.8549 28.0753 66.5975 26.8575 63.0985C25.5547 59.3548 24.3768 55.9807 23.5366 53.5717C22.7097 51.1974 20.8431 49.3308 18.4688 48.5039C16.0598 47.6637 12.6857 46.4858 8.94202 45.183C5.44295 43.9652 3.18557 40.5592 3.43019 36.8634C3.66948 33.1675 6.34697 30.0859 9.97633 29.3334C20.1226 27.2276 30.9575 24.9809 38.9846 23.3137Z" fill="#332DE6"></path></g><defs><clipPath id="clip0_97_49"><rect width="260" height="91" fill="white"></rect></clipPath></defs></svg>