<svg xmlns="http://www.w3.org/2000/svg" width="299" height="65" viewBox="0 0 299 65" fill="none"><path fill-rule="evenodd" clip-rule="evenodd" d="M0 0.730338C0 16.9608 0 33.1913 0 49.4218C0 58.7932 5.39 64.6473 14.9821 63.3227C24.1708 62.0514 29.9643 55.611 29.9643 46.3005C29.9643 31.0978 29.9643 15.895 29.9643 0.68457C26.7973 0.692183 23.6301 0.699904 20.4631 0.699904C20.4631 16.4127 20.4631 32.1178 20.4631 47.8306C20.4631 51.2868 18.8495 53.9438 15.2563 54.3701C11.6021 54.804 10.049 52.3299 10.049 48.927C10.049 32.8563 10.049 16.7856 10.049 0.715005C6.69932 0.722618 3.34963 0.730338 0 0.730338Z" fill="#F53234"></path><path fill-rule="evenodd" clip-rule="evenodd" d="M35.5368 14.9059C35.5368 22.8461 40.5153 28.2586 46.5904 32.7654C50.6099 35.7192 55.1775 39.2441 55.1775 44.7025C55.1775 48.0902 53.4193 50.4045 49.9707 50.709C46.4916 51.0135 44.7634 48.8895 44.7634 45.517C44.7634 44.1315 44.7634 42.746 44.7634 41.3605C41.5964 41.5965 38.4296 41.84 35.2627 42.0988C35.2627 43.3092 35.2627 44.5273 35.2627 45.7377C35.2627 54.9568 41.178 59.9281 50.2448 59.0069C59.0376 58.1086 65.2265 52.5359 65.2265 43.4386C65.2265 35.7116 60.0044 30.6263 54.173 26.2794C50.0849 23.2571 45.5858 19.5801 45.5858 14.0456C45.5858 10.7341 47.0929 8.29035 50.61 8.23706C54.0815 8.19138 55.6343 10.5132 55.6343 13.8019V16.1695C58.8012 16.0858 61.9685 16.0096 65.1354 15.9335V14.1597C65.1354 5.19943 59.1135 0 50.3359 0C41.1777 0 35.5368 5.77057 35.5368 14.9059Z" fill="#F53234"></path><path fill-rule="evenodd" clip-rule="evenodd" d="M84.8682 0.632521C80.2092 0.632521 75.5502 0.640188 70.8911 0.640188C70.8911 19.2535 70.8911 37.8668 70.8911 56.4877C73.8144 56.2517 76.7376 56.0309 79.6609 55.8254C79.6609 42.8151 79.6609 29.8047 79.6609 16.7944H79.844C82.2648 29.6372 84.7006 42.48 87.152 55.3228C90.3189 55.1173 93.4857 54.9346 96.6526 54.7671C98.8908 41.7873 101.144 28.8074 103.413 15.8351H103.596C103.596 28.6932 103.596 41.559 103.596 54.417C106.763 54.2647 109.93 54.1353 113.097 54.0211C113.097 36.2148 113.097 18.4159 113.097 0.617188C108.438 0.617188 103.778 0.617241 99.1195 0.624854C96.8508 13.4905 94.5974 26.3637 92.3593 39.2369L92.1767 39.2446C89.7253 26.3713 87.2891 13.5058 84.8682 0.632521Z" fill="#F53234"></path><path fill-rule="evenodd" clip-rule="evenodd" d="M120.404 53.7686C129.266 53.5098 138.127 53.3652 146.988 53.3423C146.988 50.8301 146.988 48.3179 146.988 45.8057C141.477 45.8209 135.965 45.8742 130.453 45.9655C130.453 30.8465 130.453 15.7274 130.453 0.608398C127.104 0.608398 123.754 0.608398 120.404 0.608398C120.404 18.331 120.404 36.0536 120.404 53.7686Z" fill="#F53234"></path><path fill-rule="evenodd" clip-rule="evenodd" d="M161.422 8.1529C167.207 8.16051 172.993 8.17565 178.779 8.2061C178.779 5.67104 178.779 3.14346 178.779 0.608398C169.644 0.608398 160.508 0.608398 151.373 0.608398C151.373 18.1864 151.373 35.7643 151.373 53.3423C160.508 53.3575 169.651 53.5022 178.779 53.7686C178.779 51.2412 178.779 48.7063 178.779 46.1788C172.993 46.0266 167.207 45.9275 161.422 45.8666C161.422 40.7127 161.422 35.5588 161.422 30.4049C166.02 30.4354 170.618 30.4812 175.216 30.5497C175.216 28.0222 175.216 25.4947 175.216 22.9673C170.618 22.9216 166.02 22.8835 161.422 22.8607C161.422 17.958 161.422 13.0555 161.422 8.1529Z" fill="#F53234"></path><path fill-rule="evenodd" clip-rule="evenodd" d="M195.04 8.29853C200.551 8.33659 206.063 8.38231 211.575 8.4356C211.575 5.83202 211.575 3.22849 211.575 0.632521C202.713 0.624908 193.852 0.617188 184.991 0.617188C184.991 18.4007 184.991 36.1842 184.991 53.9754C188.34 54.0972 191.69 54.2343 195.04 54.3866C195.04 46.9869 195.04 39.5872 195.04 32.1875C199.364 32.3093 203.688 32.4388 208.012 32.5911C208.012 30.0027 208.012 27.4068 208.012 24.8184C203.688 24.6966 199.364 24.5975 195.04 24.5062C195.04 19.1011 195.04 13.7036 195.04 8.29853Z" fill="#F53234"></path><path fill-rule="evenodd" clip-rule="evenodd" d="M216.417 55.6037C225.286 56.2051 234.155 56.9286 243.001 57.766C243.001 55.0482 243.001 52.3303 243.001 49.6049C237.497 49.1633 231.985 48.7524 226.466 48.3794C226.466 32.4686 226.466 16.5503 226.466 0.639503C223.116 0.639503 219.767 0.631836 216.417 0.631836C216.417 18.9559 216.417 37.2797 216.417 55.6037Z" fill="#F53234"></path><path fill-rule="evenodd" clip-rule="evenodd" d="M247.386 58.1921C250.735 58.5271 254.085 58.8773 257.434 59.2427C257.434 39.7235 257.434 20.1966 257.434 0.669776C254.085 0.669776 250.735 0.662109 247.386 0.662109C247.386 19.8388 247.386 39.0155 247.386 58.1921Z" fill="#F53234"></path><path fill-rule="evenodd" clip-rule="evenodd" d="M288.951 0.715836C286.432 8.27535 283.874 15.8196 281.278 23.3486L281.095 23.3412C278.636 15.7817 276.139 8.22974 273.604 0.693068C270.133 0.693068 266.661 0.685347 263.19 0.677734C266.768 10.483 270.247 20.2199 273.696 30.0633C270.011 40.0361 266.288 49.8869 262.459 59.8064C265.595 60.1642 268.732 60.5449 271.869 60.9331C274.647 53.2138 277.388 45.4868 280.09 37.737L280.273 37.7523C283.029 46.1949 285.739 54.6525 288.404 63.1256C291.944 63.628 295.476 64.1458 299 64.6787C295.331 53.3889 291.608 42.2209 287.764 30.9844C291.349 20.8975 294.836 10.8714 298.269 0.731169C295.163 0.731169 292.057 0.723448 288.951 0.715836Z" fill="#F53234"></path></svg>